<svg version="1.1" id="Layer_1" xmlns="http://www.w3.org/2000/svg" xmlns:xlink="http://www.w3.org/1999/xlink" x="0px" y="0px"
	 width="100%" viewBox="0 0 1254 1254" enable-background="new 0 0 1254 1254" xml:space="preserve">
<path fill="#015CFA" opacity="1.000000" stroke="none" 
	d="
M1.000004,1074.000000 
	C1.000000,777.303955 1.000000,480.607941 1.395457,183.672806 
	C2.193540,182.255936 2.779066,181.106827 2.968954,179.895691 
	C4.155116,172.330124 4.771524,164.640579 6.474035,157.197372 
	C10.836059,138.126968 17.608374,119.967148 27.444883,102.925758 
	C35.247410,89.408180 44.189949,76.776672 55.038296,65.631516 
	C62.504856,57.960659 70.579079,50.845257 78.712395,43.867016 
	C94.973526,29.915243 113.840660,20.383917 133.791504,13.061069 
	C148.938156,7.501570 164.617508,3.891485 180.819809,2.912339 
	C181.582275,2.866262 182.274872,1.663877 183.000000,1.000000 
	C480.029388,1.000000 777.058777,1.000000 1074.317627,1.392289 
	C1075.225952,2.179703 1075.863770,2.806538 1076.589722,2.934962 
	C1086.357788,4.663006 1096.286621,5.723517 1105.888428,8.106780 
	C1137.855713,16.041424 1165.721069,31.732693 1189.663696,54.274170 
	C1196.281738,60.504898 1202.836060,66.971306 1208.379883,74.134239 
	C1216.119873,84.134766 1223.628906,94.463402 1229.908936,105.413185 
	C1242.829468,127.940918 1250.835449,152.239990 1253.095947,178.276093 
	C1253.150269,178.901108 1254.339966,179.427567 1255.000000,180.000000 
	C1255.000000,478.696045 1255.000000,777.392090 1254.605225,1076.336670 
	C1253.816040,1077.263550 1253.163818,1077.907593 1253.068115,1078.625732 
	C1252.312988,1084.293091 1252.218872,1090.108521 1250.886597,1095.628784 
	C1245.065063,1119.752075 1236.775269,1142.943726 1222.769653,1163.677002 
	C1212.549072,1178.807129 1200.842896,1192.610352 1187.004639,1204.725586 
	C1175.506104,1214.792480 1163.375732,1223.779419 1149.957642,1230.966797 
	C1127.960571,1242.749512 1104.764771,1250.894531 1079.710938,1253.096680 
	C1079.089600,1253.151245 1078.567993,1254.340088 1078.000000,1255.000000 
	C778.637329,1255.000000 479.274597,1255.000000 179.681824,1254.610840 
	C174.523392,1253.431519 169.481049,1253.063354 164.688797,1251.769287 
	C152.184860,1248.392700 139.547455,1245.275757 127.406593,1240.841553 
	C106.709442,1233.282104 88.171547,1221.652344 71.755470,1207.032104 
	C62.826077,1199.079468 54.764793,1190.093506 46.769051,1181.164307 
	C32.271748,1164.974487 21.756325,1146.226196 14.181541,1126.002930 
	C8.189566,1110.005371 3.788533,1093.466675 2.911964,1076.210449 
	C2.872990,1075.443237 1.664008,1074.735474 1.000004,1074.000000 
M1020.582886,1025.080444 
	C1036.684570,1012.393616 1050.912598,997.798401 1061.527710,980.296570 
	C1101.977661,913.604004 1102.477783,846.274841 1063.690918,778.592834 
	C1062.446777,776.421936 1061.723633,773.638733 1061.700317,771.132141 
	C1061.529907,752.803101 1061.597412,734.471680 1061.595947,716.141052 
	C1061.586914,603.990845 1061.568115,491.840576 1061.584351,379.690338 
	C1061.586670,363.370361 1059.064087,347.446350 1053.655396,332.093933 
	C1033.255859,274.190979 979.596619,236.481491 918.195129,236.522186 
	C840.040039,236.573990 761.884888,236.534592 683.729797,236.533844 
	C569.913086,236.532745 456.096375,236.548203 342.279663,236.514755 
	C320.241394,236.508286 298.896393,240.523453 279.464020,250.746033 
	C227.124847,278.279541 199.169434,321.754730 199.042664,381.265686 
	C198.698669,542.741211 198.729004,704.218689 199.137253,865.694031 
	C199.273651,919.645081 224.449448,960.323914 269.700653,988.600891 
	C293.657837,1003.571594 320.396332,1008.579285 348.561371,1008.528015 
	C489.206848,1008.272156 629.853027,1008.390564 770.498779,1008.550537 
	C773.273682,1008.553711 776.685486,1009.984680 778.721680,1011.897461 
	C800.340332,1032.206543 824.950378,1047.812866 853.444031,1055.871338 
	C913.689514,1072.909668 969.536743,1063.327515 1020.582886,1025.080444 
z"/>
<path fill="#000000" opacity="1.000000" stroke="none" 
	d="
M182.531342,1.000000 
	C182.274872,1.663877 181.582275,2.866262 180.819809,2.912339 
	C164.617508,3.891485 148.938156,7.501570 133.791504,13.061069 
	C113.840660,20.383917 94.973526,29.915243 78.712395,43.867016 
	C70.579079,50.845257 62.504856,57.960659 55.038296,65.631516 
	C44.189949,76.776672 35.247410,89.408180 27.444883,102.925758 
	C17.608374,119.967148 10.836059,138.126968 6.474035,157.197372 
	C4.771524,164.640579 4.155116,172.330124 2.968954,179.895691 
	C2.779066,181.106827 2.193540,182.255936 1.395457,183.216858 
	C1.000000,122.406311 1.000000,61.812614 1.000000,1.000000 
	C61.354050,1.000000 121.708366,1.000000 182.531342,1.000000 
z"/>
<path fill="#000000" opacity="1.000000" stroke="none" 
	d="
M1255.000000,179.531342 
	C1254.339966,179.427567 1253.150269,178.901108 1253.095947,178.276093 
	C1250.835449,152.239990 1242.829468,127.940918 1229.908936,105.413185 
	C1223.628906,94.463402 1216.119873,84.134766 1208.379883,74.134239 
	C1202.836060,66.971306 1196.281738,60.504898 1189.663696,54.274170 
	C1165.721069,31.732693 1137.855713,16.041424 1105.888428,8.106780 
	C1096.286621,5.723517 1086.357788,4.663006 1076.589722,2.934962 
	C1075.863770,2.806538 1075.225952,2.179703 1074.773682,1.392289 
	C1134.926758,1.000000 1194.853638,1.000000 1255.000000,1.000000 
	C1255.000000,60.354046 1255.000000,119.708366 1255.000000,179.531342 
z"/>
<path fill="#000000" opacity="1.000000" stroke="none" 
	d="
M1.000004,1074.468628 
	C1.664008,1074.735474 2.872990,1075.443237 2.911964,1076.210449 
	C3.788533,1093.466675 8.189566,1110.005371 14.181541,1126.002930 
	C21.756325,1146.226196 32.271748,1164.974487 46.769051,1181.164307 
	C54.764793,1190.093506 62.826077,1199.079468 71.755470,1207.032104 
	C88.171547,1221.652344 106.709442,1233.282104 127.406593,1240.841553 
	C139.547455,1245.275757 152.184860,1248.392700 164.688797,1251.769287 
	C169.481049,1253.063354 174.523392,1253.431519 179.225891,1254.610840 
	C119.739037,1255.000000 60.478069,1255.000000 1.000000,1255.000000 
	C1.000000,1194.979248 1.000000,1134.958252 1.000004,1074.468628 
z"/>
<path fill="#000000" opacity="1.000000" stroke="none" 
	d="
M1078.468628,1255.000000 
	C1078.567993,1254.340088 1079.089600,1253.151245 1079.710938,1253.096680 
	C1104.764771,1250.894531 1127.960571,1242.749512 1149.957642,1230.966797 
	C1163.375732,1223.779419 1175.506104,1214.792480 1187.004639,1204.725586 
	C1200.842896,1192.610352 1212.549072,1178.807129 1222.769653,1163.677002 
	C1236.775269,1142.943726 1245.065063,1119.752075 1250.886597,1095.628784 
	C1252.218872,1090.108521 1252.312988,1084.293091 1253.068115,1078.625732 
	C1253.163818,1077.907593 1253.816040,1077.263550 1254.605225,1076.792603 
	C1255.000000,1136.260132 1255.000000,1195.520264 1255.000000,1255.000000 
	C1196.312622,1255.000000 1137.624878,1255.000000 1078.468628,1255.000000 
z"/>
<path fill="#FCFCFD" opacity="1.000000" stroke="none" 
	d="
M1020.292603,1025.287231 
	C969.536743,1063.327515 913.689514,1072.909668 853.444031,1055.871338 
	C824.950378,1047.812866 800.340332,1032.206543 778.721680,1011.897461 
	C776.685486,1009.984680 773.273682,1008.553711 770.498779,1008.550537 
	C629.853027,1008.390564 489.206848,1008.272156 348.561371,1008.528015 
	C320.396332,1008.579285 293.657837,1003.571594 269.700653,988.600891 
	C224.449448,960.323914 199.273651,919.645081 199.137253,865.694031 
	C198.729004,704.218689 198.698669,542.741211 199.042664,381.265686 
	C199.169434,321.754730 227.124847,278.279541 279.464020,250.746033 
	C298.896393,240.523453 320.241394,236.508286 342.279663,236.514755 
	C456.096375,236.548203 569.913086,236.532745 683.729797,236.533844 
	C761.884888,236.534592 840.040039,236.573990 918.195129,236.522186 
	C979.596619,236.481491 1033.255859,274.190979 1053.655396,332.093933 
	C1059.064087,347.446350 1061.586670,363.370361 1061.584351,379.690338 
	C1061.568115,491.840576 1061.586914,603.990845 1061.595947,716.141052 
	C1061.597412,734.471680 1061.529907,752.803101 1061.700317,771.132141 
	C1061.723633,773.638733 1062.446777,776.421936 1063.690918,778.592834 
	C1102.477783,846.274841 1101.977661,913.604004 1061.527710,980.296570 
	C1050.912598,997.798401 1036.684570,1012.393616 1020.292603,1025.287231 
M731.501587,821.045410 
	C747.780090,772.673645 778.020752,735.549011 823.554016,712.634338 
	C888.084717,680.158936 951.251282,685.958008 1012.346680,724.454224 
	C1012.566101,722.748230 1012.793640,721.805237 1012.793091,720.862427 
	C1012.780212,697.531860 1013.086365,674.193848 1012.581787,650.873535 
	C1012.279602,636.907288 1007.171326,624.206726 997.009949,614.506775 
	C976.888123,595.298523 956.263000,576.616028 935.780518,557.787415 
	C905.975586,530.389160 875.999207,503.176422 846.316650,475.646606 
	C827.984619,458.644012 799.226318,458.340973 780.852173,475.310425 
	C749.767883,504.018311 718.580017,532.614014 687.485840,561.311218 
	C648.190552,597.577332 608.915710,633.865845 569.741272,670.262329 
	C566.912048,672.890930 565.061646,672.904785 562.135376,670.614929 
	C545.342163,657.473450 528.261963,644.695129 511.583893,631.410889 
	C490.316437,614.471130 457.947021,614.356262 437.003632,631.627258 
	C432.506897,635.335510 428.258881,639.344116 423.791443,643.089233 
	C401.325073,661.923157 378.741150,680.617737 356.356079,699.547607 
	C328.753387,722.889648 301.381042,746.504211 273.758545,769.822632 
	C260.753052,780.801636 253.619080,794.723999 253.097290,811.505798 
	C252.496796,830.818054 252.717651,850.167236 253.078979,869.491150 
	C253.189575,875.406006 254.483841,881.410522 256.008850,887.169312 
	C267.224640,929.522522 304.100250,958.078613 347.769196,958.101868 
	C476.427032,958.170410 605.084961,958.122375 733.742798,958.119873 
	C735.678284,958.119812 737.613770,958.119812 740.507385,958.119812 
	C720.646179,913.244446 717.158630,868.065552 731.501587,821.045410 
M1006.345154,829.213684 
	C1004.208740,825.449707 1002.242798,821.576294 999.908936,817.938965 
	C981.213196,788.802795 954.766113,770.837280 920.537903,766.124756 
	C869.463318,759.092773 822.006042,786.955444 802.034912,834.693787 
	C784.551819,876.484741 793.913269,927.894043 829.475464,961.950500 
	C874.350525,1004.925537 949.613708,1001.667542 989.252991,953.849304 
	C1020.390259,916.287231 1025.382935,874.653564 1006.345154,829.213684 
M451.169037,494.653107 
	C481.075684,470.177917 493.553711,438.998322 483.376160,401.385254 
	C473.813873,366.045929 449.502106,344.657135 413.310486,338.312134 
	C361.243835,329.183990 315.656006,367.116302 311.353149,414.679108 
	C308.023895,451.479950 322.182587,480.691589 353.767151,499.489288 
	C386.331940,518.870422 419.235138,516.581299 451.169037,494.653107 
M1013.938110,815.704712 
	C1023.759216,833.660156 1029.602905,852.727600 1030.249146,873.296509 
	C1030.519775,881.914734 1035.212646,887.811157 1043.144897,888.516785 
	C1050.416138,889.163574 1057.818237,889.260193 1065.093506,888.700439 
	C1073.549683,888.049805 1079.091919,881.567139 1078.584595,873.075195 
	C1078.030029,863.790100 1077.368408,854.419006 1075.582031,845.315247 
	C1066.132568,797.158813 1040.689453,759.522644 1000.008118,732.148804 
	C991.712646,726.566895 983.010864,728.117065 977.335022,736.288574 
	C974.582458,740.251465 972.002869,744.347351 969.554321,748.506348 
	C963.223083,759.260193 964.669434,766.101685 974.922241,773.213562 
	C990.920532,784.310669 1003.895264,798.154053 1013.938110,815.704712 
z"/>
<path fill="#025DFA" opacity="1.000000" stroke="none" 
	d="
M731.392212,821.430054 
	C717.158630,868.065552 720.646179,913.244446 740.507385,958.119812 
	C737.613770,958.119812 735.678284,958.119812 733.742798,958.119873 
	C605.084961,958.122375 476.427032,958.170410 347.769196,958.101868 
	C304.100250,958.078613 267.224640,929.522522 256.008850,887.169312 
	C254.483841,881.410522 253.189575,875.406006 253.078979,869.491150 
	C252.717651,850.167236 252.496796,830.818054 253.097290,811.505798 
	C253.619080,794.723999 260.753052,780.801636 273.758545,769.822632 
	C301.381042,746.504211 328.753387,722.889648 356.356079,699.547607 
	C378.741150,680.617737 401.325073,661.923157 423.791443,643.089233 
	C428.258881,639.344116 432.506897,635.335510 437.003632,631.627258 
	C457.947021,614.356262 490.316437,614.471130 511.583893,631.410889 
	C528.261963,644.695129 545.342163,657.473450 562.135376,670.614929 
	C565.061646,672.904785 566.912048,672.890930 569.741272,670.262329 
	C608.915710,633.865845 648.190552,597.577332 687.485840,561.311218 
	C718.580017,532.614014 749.767883,504.018311 780.852173,475.310425 
	C799.226318,458.340973 827.984619,458.644012 846.316650,475.646606 
	C875.999207,503.176422 905.975586,530.389160 935.780518,557.787415 
	C956.263000,576.616028 976.888123,595.298523 997.009949,614.506775 
	C1007.171326,624.206726 1012.279602,636.907288 1012.581787,650.873535 
	C1013.086365,674.193848 1012.780212,697.531860 1012.793091,720.862427 
	C1012.793640,721.805237 1012.566101,722.748230 1012.346680,724.454224 
	C951.251282,685.958008 888.084717,680.158936 823.554016,712.634338 
	C778.020752,735.549011 747.780090,772.673645 731.392212,821.430054 
z"/>
<path fill="#035EFA" opacity="1.000000" stroke="none" 
	d="
M1006.515991,829.549316 
	C1025.382935,874.653564 1020.390259,916.287231 989.252991,953.849304 
	C949.613708,1001.667542 874.350525,1004.925537 829.475464,961.950500 
	C793.913269,927.894043 784.551819,876.484741 802.034912,834.693787 
	C822.006042,786.955444 869.463318,759.092773 920.537903,766.124756 
	C954.766113,770.837280 981.213196,788.802795 999.908936,817.938965 
	C1002.242798,821.576294 1004.208740,825.449707 1006.515991,829.549316 
z"/>
<path fill="#FD9B04" opacity="1.000000" stroke="none" 
	d="
M450.889771,494.872131 
	C419.235138,516.581299 386.331940,518.870422 353.767151,499.489288 
	C322.182587,480.691589 308.023895,451.479950 311.353149,414.679108 
	C315.656006,367.116302 361.243835,329.183990 413.310486,338.312134 
	C449.502106,344.657135 473.813873,366.045929 483.376160,401.385254 
	C493.553711,438.998322 481.075684,470.177917 450.889771,494.872131 
z"/>
<path fill="#FC9C08" opacity="1.000000" stroke="none" 
	d="
M1013.754883,815.385559 
	C1003.895264,798.154053 990.920532,784.310669 974.922241,773.213562 
	C964.669434,766.101685 963.223083,759.260193 969.554321,748.506348 
	C972.002869,744.347351 974.582458,740.251465 977.335022,736.288574 
	C983.010864,728.117065 991.712646,726.566895 1000.008118,732.148804 
	C1040.689453,759.522644 1066.132568,797.158813 1075.582031,845.315247 
	C1077.368408,854.419006 1078.030029,863.790100 1078.584595,873.075195 
	C1079.091919,881.567139 1073.549683,888.049805 1065.093506,888.700439 
	C1057.818237,889.260193 1050.416138,889.163574 1043.144897,888.516785 
	C1035.212646,887.811157 1030.519775,881.914734 1030.249146,873.296509 
	C1029.602905,852.727600 1023.759216,833.660156 1013.754883,815.385559 
z"/>
</svg>